# xmcd
#
# Track frame offsets:
#	150
#	15225
#	28089
#	39988
#	53149
#	64584
#	78566
#	92583
#	107328
#	121603
#	136397
#	152022
#	163663
#	176183
#	188994
#	202813
#	214993
#	229087
#	239141
#	250874
#	262835
#	276077
#	289864
#	304512
#	315574
#	330708
#	344155
#
# Disc length: 4753 seconds
# Revision: 0
# Processed by: cddbd v1.5.2PL0 Copyright (c) Steve Scherf et al.
# Submitted via: dBpowerAMP V12.0
#
DISCID=79128f1b
DTITLE=Rosco Gordon - Just A Little Bit - Plus All The Singles As and Bs 1951-1961
DYEAR=2016
DGENRE=Blues
TTITLE0=City Woman
TTITLE1=Rosco's Boogie
TTITLE2=Ouch Pretty Baby
TTITLE3=Saddled The Cow (And Milked the Horse)
TTITLE4=Dime A Dozen (Women Women Women)
TTITLE5=A New Remedy For Love
TTITLE6=Booted [Chess version]
TTITLE7=Love You 'Til The Day I Die
TTITLE8=Booted [RPM version]
TTITLE9=Cold, Cold Winter
TTITLE10=Tell Daddy
TTITLE11=Hey, Fat Girl
TTITLE12=No More Doggin' [RPM version]
TTITLE13=Maria
TTITLE14=I Remember Your Kisses
TTITLE15=New Orleans Wimmen
TTITLE16=Two Kinds Of Women
TTITLE17=What You Got On Your Mind
TTITLE18=New Orleans Women
TTITLE19=T-Model Boogie
TTITLE20=Too Many Women
TTITLE21=Wise To You Baby
TTITLE22=Ain't No Use
TTITLE23=Rosco's Mambo
TTITLE24=Trying
TTITLE25=Dream Baby
TTITLE26=Lucille (Lookin' For My Baby)
EXTD=
EXTT0=
EXTT1=
EXTT2=
EXTT3=
EXTT4=
EXTT5=
EXTT6=
EXTT7=
EXTT8=
EXTT9=
EXTT10=
EXTT11=
EXTT12=
EXTT13=
EXTT14=
EXTT15=
EXTT16=
EXTT17=
EXTT18=
EXTT19=
EXTT20=
EXTT21=
EXTT22=
EXTT23=
EXTT24=
EXTT25=
EXTT26=
PLAYORDER=
